<?xml version="1.0" encoding="utf-8"?>
<svg cached="false" export-id="fd0b883d0d334558a0be37d2341faefa" id="e6riYFBcowK1" project-id="342289b56ec244528a57ecf263a26741" shape-rendering="geometricPrecision" text-rendering="geometricPrecision" viewBox="0 0 300 300" xmlns="http://www.w3.org/2000/svg" xmlns:xlink="http://www.w3.org/1999/xlink"><g transform="matrix(1.543009 0 0 1.387085-90.801957-31.475434)"><g transform="matrix(.811472 0 0 0.767978 29.427802 30.519119)"><rect fill="#905efe" height="15.234375" rx="0" ry="0" stroke-width="0" transform="matrix(.826875 0 0 1 119.997438 95.53711)" width="87.304687"/><rect fill="#905efe" height="15.234375" rx="0" ry="0" stroke-width="0" transform="matrix(.826875 0 0 1 119.997438 123.662117)" width="87.304687"/><rect fill="#905efe" height="15.234375" rx="0" ry="0" stroke-width="0" transform="matrix(.826875 0 0 1 119.997438 150)" width="87.304687"/><rect fill="#905efe" height="12.890631" rx="0" ry="0" stroke-width="0" transform="translate(119.997438 110.771486)" width="15.114608"/><rect fill="#905efe" height="12.890631" rx="0" ry="0" stroke-width="0" transform="translate(177.072893 137.109369)" width="15.114608"/></g><rect fill="#905efe" height="3.135839" rx="0" ry="0" stroke-width="0" transform="translate(100.543333 73.535443)" width="111.098273"/><g transform="translate(.000001 0)"><rect fill="#905efe" height="3.135839" rx="0" ry="0" stroke-width="0" transform="matrix(.341186 0 0 1 208.505767 73.535444)" width="111.098273"/><rect fill="#905efe" height="3.135839" rx="0" ry="0" stroke-width="0" transform="matrix(0-.341186 1 0 208.505767 76.671283)" width="111.098273"/><rect fill="#905efe" height="3.135839" rx="0" ry="0" stroke-width="0" transform="matrix(.105203-.105203 0.707107 0.707107 198.187565 48.207923)" width="111.098273"/><rect fill="#905efe" height="3.135839" rx="0" ry="0" stroke-width="0" transform="matrix(.105203 0.105203-.707107 0.707107 209.772074 36.520013)" width="111.098273"/><g transform="matrix(0 1-1 0 301.353341-163.991181)"><rect fill="#905efe" height="3.135839" rx="0" ry="0" stroke-width="0" transform="matrix(.105203 0.105203-.707107 0.707107 239.04286 50.766054)" width="111.098273"/><rect fill="#905efe" height="3.135839" rx="0" ry="0" stroke-width="0" transform="matrix(.105203-.105203 0.707107 0.707107 227.458355 62.453964)" width="111.098273"/></g></g><g transform="matrix(-1 0 0-1 312.119968 261.664493)"><rect fill="#905efe" height="3.135839" rx="0" ry="0" stroke-width="0" transform="matrix(.341186 0 0 1 208.505767 73.535444)" width="111.098273"/><rect fill="#905efe" height="3.135839" rx="0" ry="0" stroke-width="0" transform="matrix(0-.341186 1 0 208.505767 76.671283)" width="111.098273"/><rect fill="#905efe" height="3.135839" rx="0" ry="0" stroke-width="0" transform="matrix(.105203-.105203 0.707107 0.707107 198.187565 48.207923)" width="111.098273"/><rect fill="#905efe" height="3.135839" rx="0" ry="0" stroke-width="0" transform="matrix(.105203 0.105203-.707107 0.707107 209.772074 36.520013)" width="111.098273"/><g transform="matrix(0 1-1 0 301.353341-163.991181)"><rect fill="#905efe" height="3.135839" rx="0" ry="0" stroke-width="0" transform="matrix(.105203 0.105203-.707107 0.707107 239.04286 50.766054)" width="111.098273"/><rect fill="#905efe" height="3.135839" rx="0" ry="0" stroke-width="0" transform="matrix(.105203-.105203 0.707107 0.707107 227.458355 62.453964)" width="111.098273"/></g></g><rect fill="#905efe" height="3.135839" rx="0" ry="0" stroke-width="0" transform="translate(100.543333 185.081704)" width="111.098273"/><rect fill="#905efe" height="3.135839" rx="0" ry="0" stroke-width="0" transform="matrix(0-1 1 0 100.543333 186.201636)" width="111.098273"/><rect fill="#905efe" height="3.135839" rx="0" ry="0" stroke-width="0" transform="matrix(0-1 1 0 208.505767 187.769555)" width="111.098273"/></g></svg>