<svg id="e6riYFBcowK1" xmlns="http://www.w3.org/2000/svg" xmlns:xlink="http://www.w3.org/1999/xlink" viewBox="0 0 300 300" shape-rendering="geometricPrecision" text-rendering="geometricPrecision" project-id="342289b56ec244528a57ecf263a26741" export-id="fd0b883d0d334558a0be37d2341faefa" cached="false"><g transform="matrix(1.543009 0 0 1.387085-90.801957-31.475434)"><g transform="matrix(.811472 0 0 0.767978 29.427802 30.519119)"><rect width="87.304687" height="15.234375" rx="0" ry="0" transform="matrix(.826875 0 0 1 119.997438 95.53711)" fill="#f6ff04" stroke-width="0"/><rect width="87.304687" height="15.234375" rx="0" ry="0" transform="matrix(.826875 0 0 1 119.997438 123.662117)" fill="#f6ff04" stroke-width="0"/><rect width="87.304687" height="15.234375" rx="0" ry="0" transform="matrix(.826875 0 0 1 119.997438 150)" fill="#f6ff04" stroke-width="0"/><rect width="15.114608" height="12.890631" rx="0" ry="0" transform="translate(119.997438 110.771486)" fill="#f6fe05" stroke-width="0"/><rect width="15.114608" height="12.890631" rx="0" ry="0" transform="translate(177.072893 137.109369)" fill="#f6fe05" stroke-width="0"/></g><rect width="111.098273" height="3.135839" rx="0" ry="0" transform="translate(100.543333 73.535443)" fill="#f6fe05" stroke-width="0"/><g transform="translate(.000001 0)"><rect width="111.098273" height="3.135839" rx="0" ry="0" transform="matrix(.341186 0 0 1 208.505767 73.535444)" fill="#f6fe05" stroke-width="0"/><rect width="111.098273" height="3.135839" rx="0" ry="0" transform="matrix(0-.341186 1 0 208.505767 76.671283)" fill="#f6fe05" stroke-width="0"/><rect width="111.098273" height="3.135839" rx="0" ry="0" transform="matrix(.105203-.105203 0.707107 0.707107 198.187565 48.207923)" fill="#f6fe05" stroke-width="0"/><rect width="111.098273" height="3.135839" rx="0" ry="0" transform="matrix(.105203 0.105203-.707107 0.707107 209.772074 36.520013)" fill="#f6fe05" stroke-width="0"/><g transform="matrix(0 1-1 0 301.353341-163.991181)"><rect width="111.098273" height="3.135839" rx="0" ry="0" transform="matrix(.105203 0.105203-.707107 0.707107 239.04286 50.766054)" fill="#f6fe05" stroke-width="0"/><rect width="111.098273" height="3.135839" rx="0" ry="0" transform="matrix(.105203-.105203 0.707107 0.707107 227.458355 62.453964)" fill="#f6fe05" stroke-width="0"/></g></g><g transform="matrix(-1 0 0-1 312.119968 261.664493)"><rect width="111.098273" height="3.135839" rx="0" ry="0" transform="matrix(.341186 0 0 1 208.505767 73.535444)" fill="#f6fe05" stroke-width="0"/><rect width="111.098273" height="3.135839" rx="0" ry="0" transform="matrix(0-.341186 1 0 208.505767 76.671283)" fill="#f6fe05" stroke-width="0"/><rect width="111.098273" height="3.135839" rx="0" ry="0" transform="matrix(.105203-.105203 0.707107 0.707107 198.187565 48.207923)" fill="#f6fe05" stroke-width="0"/><rect width="111.098273" height="3.135839" rx="0" ry="0" transform="matrix(.105203 0.105203-.707107 0.707107 209.772074 36.520013)" fill="#f6fe05" stroke-width="0"/><g transform="matrix(0 1-1 0 301.353341-163.991181)"><rect width="111.098273" height="3.135839" rx="0" ry="0" transform="matrix(.105203 0.105203-.707107 0.707107 239.04286 50.766054)" fill="#f6fe05" stroke-width="0"/><rect width="111.098273" height="3.135839" rx="0" ry="0" transform="matrix(.105203-.105203 0.707107 0.707107 227.458355 62.453964)" fill="#f6fe05" stroke-width="0"/></g></g><rect width="111.098273" height="3.135839" rx="0" ry="0" transform="translate(100.543333 185.081704)" fill="#f6fe05" stroke-width="0"/><rect width="111.098273" height="3.135839" rx="0" ry="0" transform="matrix(0-1 1 0 100.543333 186.201636)" fill="#f6fe05" stroke-width="0"/><rect width="111.098273" height="3.135839" rx="0" ry="0" transform="matrix(0-1 1 0 208.505767 187.769555)" fill="#f6fe05" stroke-width="0"/></g></svg>
